<svg xmlns="http://www.w3.org/2000/svg" width="1600" height="900" viewBox="0 0 1600 900"><defs><linearGradient id="sky" x1="0" y1="0" x2="0" y2="1"><stop stop-color="#dbeafe"/><stop offset=".55" stop-color="#f8fafc"/><stop offset="1" stop-color="#d6d3d1"/></linearGradient><linearGradient id="floor" x1="0" y1="0" x2="1" y2="1"><stop stop-color="#14532d"/><stop offset="1" stop-color="#86efac"/></linearGradient></defs><rect width="1600" height="900" fill="url(#sky)"/><path d="M120 160h1360v115H120z" fill="#d6d3d1"/><path d="M160 175h1280l-170 150H330z" fill="#a8a29e"/><g stroke="#78716c" stroke-width="6" opacity=".55"><path d="M205 175l160 150M380 175l105 150M555 175l55 150M730 175l8 150M905 175l-40 150M1080 175l-92 150M1255 175l-150 150"/><path d="M160 215h1280M215 255h1170M275 295h1050"/></g><rect x="235" y="330" width="1130" height="450" rx="8" fill="#f8fafc"/><rect x="298" y="392" width="245" height="250" fill="#cbd5e1"/><rect x="1058" y="392" width="245" height="250" fill="#cbd5e1"/><rect x="610" y="365" width="380" height="410" fill="#e7e5e4"/><rect x="695" y="510" width="210" height="210" fill="#1e293b"/><rect x="725" y="540" width="150" height="130" fill="#0ea5e9"/><circle cx="800" cy="445" r="58" fill="#f59e0b"/><text x="692" y="458" font-family="Arial" font-size="44" font-weight="800" fill="#78350f">UANL</text><text x="680" y="758" font-family="Arial" font-size="50" font-weight="800" fill="#a16207">FIME</text><rect y="710" width="1600" height="190" fill="url(#floor)"/><rect x="410" y="700" width="55" height="130" fill="#166534"/><rect x="1135" y="700" width="55" height="130" fill="#166534"/></svg>
